<svg width="83" height="28" viewBox="0 0 83 28" fill="none" xmlns="http://www.w3.org/2000/svg">
<path fill-rule="evenodd" clip-rule="evenodd" d="M16.2052 15.3136C15.5965 15.8826 15.5965 15.8826 11.197 18.8426C8.73211 20.5435 7.52075 21.6391 6.75536 22.8921C8.81648 22.771 9.82293 22.7347 11.2754 22.7347H19.3933V27.3956H0.0115211C-0.0306656 24.5567 1.06619 21.6815 2.71749 19.9745C4.04939 18.5581 5.22459 17.6622 10.3473 14.1756C12.9327 12.396 13.8186 11.0946 13.8186 9.10918C13.8186 6.79689 12.2878 5.25335 10.064 5.25335C7.27968 5.25335 5.86341 7.16008 5.74288 11.0946H0.620214C0.578028 10.8525 0.578028 10.568 0.578028 10.5256C0.578028 4.44829 4.33264 0.592468 10.2689 0.592468C15.5965 0.592468 19.2727 3.91562 19.2727 8.74599C19.2727 11.3791 18.3025 13.4856 16.2052 15.3136ZM30.9223 27.8011C36.8947 27.8011 40.5288 22.6923 40.5288 14.218C40.5288 10.5256 39.8478 7.32351 38.5099 4.93254C37.0574 2.25707 34.1526 0.592468 30.9223 0.592468C24.745 0.592468 21.1109 5.65891 21.1109 14.2604C21.1109 22.771 24.745 27.8011 30.9223 27.8011ZM26.4023 14.5025C26.4023 7.77144 27.692 4.96886 30.8801 4.96886C33.8693 4.96886 35.2434 7.8925 35.2434 14.1756C35.2434 20.4648 33.8271 23.4248 30.8439 23.4248C27.8547 23.4248 26.4023 20.5435 26.4023 14.5025ZM57.657 15.5243C57.1945 15.9381 56.6747 16.2878 52.8774 18.8426C50.4186 20.5435 49.2012 21.6391 48.4358 22.8921C50.4969 22.771 51.5034 22.7347 52.9558 22.7347H61.0737V27.3956H41.6919C41.6498 24.5567 42.7466 21.6815 44.3979 19.9745C45.7298 18.5581 46.905 17.6622 52.0337 14.1756C54.6131 12.396 55.499 11.0946 55.499 9.10918C55.499 6.79689 53.9683 5.25335 51.7444 5.25335C48.9601 5.25335 47.5499 7.16008 47.4233 11.0946H42.3006C42.2585 10.8525 42.2585 10.568 42.2585 10.5256C42.2585 4.44829 46.0131 0.592468 51.9493 0.592468C57.2769 0.592468 60.9532 3.91562 60.9532 8.74599C60.9532 11.3791 59.9829 13.4856 57.8856 15.3136C57.8023 15.3915 57.7304 15.4587 57.657 15.5243ZM82.2092 14.218C82.2092 22.6923 78.5751 27.8011 72.6027 27.8011C66.4254 27.8011 62.7913 22.771 62.7913 14.2604C62.7913 5.65891 66.4254 0.592468 72.6027 0.592468C75.833 0.592468 78.7379 2.25707 80.1903 4.93254C81.5282 7.32351 82.2092 10.5256 82.2092 14.218ZM72.5605 4.96886C69.3724 4.96886 68.0827 7.77144 68.0827 14.5025C68.0827 20.5435 69.5351 23.4248 72.5244 23.4248C75.5136 23.4248 76.9238 20.4648 76.9238 14.1756C76.9238 7.8925 75.5498 4.96886 72.5605 4.96886Z" fill="white"/>
</svg>
