<svg width="329" height="275" viewBox="0 0 329 275" fill="none" xmlns="http://www.w3.org/2000/svg">
<rect x="316.021" width="17" height="17" transform="rotate(45 316.021 0)" fill="white"/>
<rect x="275.364" y="76" width="9" height="9" transform="rotate(45 275.364 76)" fill="white"/>
<rect x="6.36401" y="21" width="9" height="9" transform="rotate(45 6.36401 21)" fill="white"/>
<rect x="91.364" y="79" width="9" height="9" transform="rotate(45 91.364 79)" fill="white"/>
<rect x="225.364" y="47" width="9" height="9" transform="rotate(45 225.364 47)" fill="white"/>
<rect x="166.364" y="198" width="9" height="9" transform="rotate(45 166.364 198)" fill="white"/>
<rect x="63.364" y="262" width="9" height="9" transform="rotate(45 63.364 262)" fill="white"/>
<rect x="25.5355" y="212" width="5" height="5" transform="rotate(45 25.5355 212)" fill="white"/>
<rect x="47.5355" y="78" width="5" height="5" transform="rotate(45 47.5355 78)" fill="white"/>
<rect x="268.536" y="31" width="5" height="5" transform="rotate(45 268.536 31)" fill="white"/>
<rect x="262.536" y="205" width="5" height="5" transform="rotate(45 262.536 205)" fill="white"/>
<rect x="63.0209" y="45" width="17" height="17" transform="rotate(45 63.0209 45)" fill="white"/>
<rect x="234.021" y="221" width="17" height="17" transform="rotate(45 234.021 221)" fill="white"/>
</svg>
