<svg width="12" height="19" viewBox="0 0 12 19" fill="none" xmlns="http://www.w3.org/2000/svg">
<path d="M0.673828 6.58105C0.726562 5.05176 1.0166 3.87402 1.54395 3.04785C2.00977 2.27441 2.65576 1.67676 3.48193 1.25488C4.31689 0.824219 5.24414 0.608887 6.26367 0.608887C7.81055 0.608887 9.07178 1.04395 10.0474 1.91406C11.0229 2.77539 11.5107 3.90039 11.5107 5.28906C11.5107 6.44043 11.1768 7.45557 10.5088 8.33447C10.2363 8.67725 9.55957 9.36279 8.47852 10.3911C7.81055 11.0063 7.37988 11.5601 7.18652 12.0522C7.00195 12.5444 6.90088 13.3662 6.8833 14.5176H5.38037C5.39795 13.0586 5.54297 12.0391 5.81543 11.459C6.09668 10.8701 6.91406 9.92969 8.26758 8.6377C9.33105 7.57422 9.86279 6.49316 9.86279 5.39453C9.86279 4.38379 9.52441 3.5708 8.84766 2.95557C8.1709 2.33154 7.29199 2.01953 6.21094 2.01953C4.66406 2.01953 3.53906 2.63037 2.83594 3.85205C2.47559 4.46729 2.26025 5.37695 2.18994 6.58105H0.673828ZM5.15625 19V16.4951H7.05469V19H5.15625Z" fill="white"/>
</svg>
