<svg width="175" height="269" viewBox="0 0 175 269" fill="none" xmlns="http://www.w3.org/2000/svg">
<path fill-rule="evenodd" clip-rule="evenodd" d="M63.2052 256.314C62.5965 256.883 62.5965 256.883 58.197 259.843C55.7321 261.543 54.5207 262.639 53.7554 263.892C55.8165 263.771 56.8229 263.735 58.2754 263.735H66.3933V268.396H47.0115C46.9693 265.557 48.0662 262.681 49.7175 260.974C51.0494 259.558 52.2246 258.662 57.3473 255.176C59.9327 253.396 60.8186 252.095 60.8186 250.109C60.8186 247.797 59.2878 246.253 57.064 246.253C54.2797 246.253 52.8634 248.16 52.7429 252.095H47.6202C47.578 251.852 47.578 251.568 47.578 251.526C47.578 245.448 51.3326 241.592 57.2689 241.592C62.5965 241.592 66.2727 244.916 66.2727 249.746C66.2727 252.379 65.3025 254.486 63.2052 256.314ZM77.9223 268.801C83.8947 268.801 87.5288 263.692 87.5288 255.218C87.5288 251.526 86.8478 248.324 85.5099 245.933C84.0574 243.257 81.1526 241.592 77.9223 241.592C71.745 241.592 68.1109 246.659 68.1109 255.26C68.1109 263.771 71.745 268.801 77.9223 268.801ZM73.4023 255.502C73.4023 248.771 74.692 245.969 77.8801 245.969C80.8693 245.969 82.2434 248.893 82.2434 255.176C82.2434 261.465 80.8271 264.425 77.8439 264.425C74.8547 264.425 73.4023 261.543 73.4023 255.502ZM104.657 256.524C104.194 256.938 103.675 257.288 99.8774 259.843C97.4186 261.543 96.2012 262.639 95.4358 263.892C97.4969 263.771 98.5034 263.735 99.9558 263.735H108.074V268.396H88.6919C88.6498 265.557 89.7466 262.681 91.3979 260.974C92.7298 259.558 93.905 258.662 99.0337 255.176C101.613 253.396 102.499 252.095 102.499 250.109C102.499 247.797 100.968 246.253 98.7444 246.253C95.9601 246.253 94.5499 248.16 94.4233 252.095H89.3006C89.2585 251.852 89.2585 251.568 89.2585 251.526C89.2585 245.448 93.0131 241.592 98.9493 241.592C104.277 241.592 107.953 244.916 107.953 249.746C107.953 252.379 106.983 254.486 104.886 256.314C104.802 256.391 104.73 256.459 104.657 256.524ZM129.209 255.218C129.209 263.692 125.575 268.801 119.603 268.801C113.425 268.801 109.791 263.771 109.791 255.26C109.791 246.659 113.425 241.592 119.603 241.592C122.833 241.592 125.738 243.257 127.19 245.933C128.528 248.324 129.209 251.526 129.209 255.218ZM119.561 245.969C116.372 245.969 115.083 248.771 115.083 255.502C115.083 261.543 116.535 264.425 119.524 264.425C122.514 264.425 123.924 261.465 123.924 255.176C123.924 248.893 122.55 245.969 119.561 245.969Z" fill="white"/>
<path fill-rule="evenodd" clip-rule="evenodd" d="M84.7602 119.718L87.412 122.375L90.0577 119.718L87.412 117.055L84.7602 119.718ZM87.412 111.74L95.3551 119.718L87.412 127.702L79.4628 119.718L87.412 111.74ZM119.197 69.1688L121.848 71.8321L124.494 69.1688L121.848 66.5114L119.197 69.1688ZM137.735 103.756L148.336 114.398L161.576 101.093L150.981 90.4514L137.735 103.756ZM145.684 58.5274L143.038 55.8701L132.437 66.5114L129.791 63.8481L140.386 53.2067L137.735 50.5494L124.494 63.8481L127.14 66.5114L124.494 69.1688L127.14 71.8321L111.247 87.7941L113.899 90.4514L111.247 93.1148L116.545 98.4355L119.197 95.7721L127.14 103.756L124.494 106.42L127.14 109.077L129.791 106.42L143.038 119.718L145.684 117.055L116.545 87.7941L145.684 58.5274ZM74.1654 61.1908L71.5136 63.8481L74.1654 66.5114L76.8171 63.8481L74.1654 61.1908ZM169.525 87.7941L164.228 82.4735L158.924 87.7941L164.228 93.1148L169.525 87.7941ZM174.823 87.7941L164.228 98.4355L153.627 87.7941L164.228 77.1528L174.823 87.7941ZM63.5705 93.1148L66.2222 95.7721L68.8679 93.1148L66.2222 90.4514L63.5705 93.1148ZM63.5705 82.4735L60.9248 79.8101L58.273 82.4735L60.9248 85.1368L63.5705 82.4735ZM60.9248 90.4514L63.5705 93.1148L60.9248 95.7721L68.8679 103.756L66.2222 106.42L60.9248 101.093L58.273 103.756L63.5705 109.077L60.9248 111.74L55.6273 106.42L52.9756 109.077L50.3239 106.42L55.6273 101.093L52.9756 98.4355L31.7858 119.718L29.1341 117.055L58.273 87.7941L29.1341 58.5274L31.7858 55.8701L42.3807 66.5114L45.0264 63.8481L47.6782 66.5114L50.3239 63.8481L52.9756 66.5114L55.6273 63.8481L58.273 66.5114L55.6273 69.1688L58.273 71.8321L55.6273 74.4894L52.9756 71.8321L50.3239 74.4894L52.9756 77.1528L55.6273 74.4894L58.273 77.1528L60.9248 74.4894L58.273 71.8321L60.9248 69.1688L63.5705 71.8321L66.2222 69.1688L71.5136 74.4894L68.8679 77.1528L66.2222 74.4894L63.5705 77.1528L68.8679 82.4735L60.9248 90.4514ZM90.0577 93.1148L95.3551 87.7941L100.653 93.1148L103.304 90.4514L105.95 93.1148L108.602 90.4514L103.304 85.1368L100.653 87.7941L98.0008 85.1368L100.653 82.4735L103.304 85.1368L105.95 82.4735L100.653 77.1528L103.304 74.4894L100.653 71.8321L98.0008 74.4894L95.3551 71.8321L98.0008 69.1688L95.3551 66.5114L92.7094 69.1688L90.0577 66.5114L87.412 69.1688L90.0577 71.8321L87.412 74.4894L84.7602 71.8321L82.1145 74.4894L79.4628 71.8321L82.1145 69.1688L79.4628 66.5114L76.8171 69.1688L74.1654 66.5114L71.5136 69.1688L74.1654 71.8321L71.5136 74.4894L74.1654 77.1528L76.8171 74.4894L82.1145 79.8101L79.4628 82.4735L82.1145 85.1368L87.412 79.8101L92.7094 85.1368L90.0577 87.7941L87.412 85.1368L82.1145 90.4514L87.412 95.7721L82.1145 101.093L84.7602 103.756L92.7094 95.7721L90.0577 93.1148ZM74.1654 93.1148L76.8171 95.7721L82.1145 90.4514L79.4628 87.7941L74.1654 93.1148ZM71.5136 90.4514L68.8679 93.1148L71.5136 95.7721L74.1654 93.1148L71.5136 90.4514ZM121.848 109.077L124.494 106.42L119.197 101.093L113.899 106.42L119.197 111.74L116.545 114.398L121.848 119.718L132.437 130.36L135.089 127.702L124.494 117.055L127.14 114.398L137.735 125.039L140.386 122.375L127.14 109.077L124.494 111.74L121.848 109.077ZM111.247 98.4355L108.602 95.7721L103.304 101.093L100.653 98.4355L98.0068 101.093L100.653 103.756L98.0008 106.42L95.3551 103.756L92.7094 106.42L90.0577 103.756L87.412 106.42L92.7094 111.74L95.3551 109.077L98.0008 111.74L100.653 109.077L103.304 111.74L100.653 114.398L98.0008 111.74L95.3551 114.398L100.653 119.718L103.304 117.055L105.95 119.718L108.602 117.055L113.899 122.375L116.545 119.718L111.247 114.398L113.899 111.74L111.247 109.077L108.602 111.74L103.304 106.42L105.95 103.756L111.247 109.077L113.899 106.42L108.602 101.093L111.247 98.4355ZM79.4628 61.1908L76.8171 63.8481L79.4628 66.5114L82.1145 63.8481L79.4628 61.1908ZM95.3551 61.1908L92.7094 63.8481L95.3551 66.5114L98.0008 63.8481L95.3551 61.1908ZM103.304 74.4894L105.95 77.1528L108.602 74.4894L105.95 71.8321L103.304 74.4894ZM52.9756 61.1908L55.6273 63.8481L58.273 61.1908L66.2222 69.1688L71.5136 63.8481L66.2222 58.5274L68.8679 55.8701L74.1654 61.1908L76.8171 58.5274L79.4628 61.1908L82.1145 58.5274L84.7602 61.1908L82.1145 63.8481L84.7602 66.5114L87.412 63.8481L90.0577 66.5114L92.7094 63.8481L90.0577 61.1908L92.7094 58.5274L95.3551 61.1908L98.0008 58.5274L95.3551 55.8701L103.304 47.8861L105.95 50.5494L103.304 53.2067L105.95 55.8701L103.304 58.5274L105.95 61.1908L111.247 55.8701L116.545 61.1908L113.899 63.8481L111.247 61.1908L105.95 66.5114L111.247 71.8321L108.602 74.4894L111.247 77.1528L113.899 74.4894L116.545 77.1528L119.197 74.4894L113.899 69.1688L135.089 47.8861L132.437 45.2288L121.848 55.8701L119.197 53.2067L129.791 42.5654L127.14 39.9081L116.545 50.5494L113.899 47.8861L111.247 50.5494L105.95 45.2288L119.197 31.924L116.545 29.2667L105.95 39.9081L87.412 58.5274L58.273 29.2667L55.6273 31.924L76.8171 53.2067L74.1654 55.8701L52.9756 34.5814L50.3239 37.2447L63.5705 50.5494L60.9248 53.2067L47.6782 39.9081L45.0264 42.5654L55.6273 53.2067L52.9756 55.8701L42.3807 45.2288L39.735 47.8861L50.3239 58.5274L47.6782 61.1908L50.3239 63.8481L52.9756 61.1908ZM100.653 61.1908L98.0008 63.8481L100.653 66.5114L98.0008 69.1688L100.653 71.8321L105.95 66.5114L100.653 61.1908ZM95.3551 93.1148L92.7094 95.7721L95.3551 98.4355L98.0008 95.7721L95.3551 93.1148ZM60.9248 127.702L50.3239 138.344L52.9756 141.001L63.5705 130.36L60.9248 127.702ZM31.7858 87.7941L39.735 95.7721L47.6782 87.7941L39.735 79.8101L31.7858 87.7941ZM39.735 74.4894L52.9756 87.7941L39.735 101.093L26.4884 87.7941L39.735 74.4894ZM45.0264 111.74L34.4376 122.375L37.0833 125.039L47.6782 114.398L45.0264 111.74ZM71.5136 138.344L60.9248 148.985L74.1654 162.284L84.7602 151.642L71.5136 138.344ZM129.791 133.023L119.197 122.375L116.545 125.039L127.14 135.68L129.791 133.023ZM105.95 135.68L116.545 146.322L119.197 143.658L108.602 133.023L105.95 135.68ZM105.95 130.36L98.0068 122.375L95.3551 125.039L103.304 133.023L105.95 130.36ZM100.653 141.001L98.0068 138.344L95.3551 141.001L98.0068 143.658L95.3551 146.322L92.7094 143.658L90.0577 146.322L87.412 143.658L84.7602 146.322L100.653 162.284L113.899 148.985L103.304 138.344L100.653 141.001ZM82.1145 164.947L87.412 170.262L92.7094 164.947L87.412 159.626L82.1145 164.947ZM87.412 154.306L98.0068 164.947L87.412 175.588L76.8171 164.947L87.412 154.306ZM103.304 37.2447L113.899 26.6034L100.653 13.2987L90.0577 23.9461L103.304 37.2447ZM95.3551 39.9081L87.412 31.924L79.4628 39.9081L87.412 47.8861L95.3551 39.9081ZM87.412 53.2067L74.1654 39.9081L87.412 26.6034L100.653 39.9081L87.412 53.2067ZM23.8367 90.4514L13.2478 101.093L26.4884 114.398L37.0833 103.756L23.8367 90.4514ZM143.038 87.7941L135.089 79.8101L127.14 87.7941L135.089 95.7721L143.038 87.7941ZM135.089 101.093L121.848 87.7941L135.089 74.4894L148.336 87.7941L135.089 101.093ZM15.8935 87.7941L10.5961 82.4735L5.29863 87.7941L10.5961 93.1148L15.8935 87.7941ZM21.191 87.7941L10.5961 98.4355L0.00119019 87.7941L10.5961 77.1528L21.191 87.7941ZM92.7094 10.6413L87.412 5.32067L82.1145 10.6413L87.412 15.962L92.7094 10.6413ZM87.412 21.2827L76.8171 10.6413L87.412 0L98.0008 10.6413L87.412 21.2827ZM84.7602 23.9461L74.1654 13.2987L60.9248 26.6034L71.5136 37.2447L84.7602 23.9461ZM37.0833 71.8321L26.4884 61.1908L13.2478 74.4894L23.8367 85.1368L37.0833 71.8321ZM121.848 34.5814L111.247 45.2288L113.899 47.8861L124.494 37.2447L121.848 34.5814ZM37.0833 50.5494L34.4376 53.2067L45.0264 63.8481L47.6782 61.1908L37.0833 50.5494ZM68.8679 98.4355L71.5136 101.093L74.1654 98.4355L71.5136 95.7721L68.8679 98.4355ZM121.848 141.001L124.494 138.344L113.899 127.702L111.247 130.36L121.848 141.001ZM150.981 85.1368L161.576 74.4894L148.336 61.1908L137.735 71.8321L150.981 85.1368ZM100.653 98.4355L103.304 95.7721L100.653 93.1148L98.0008 95.7721L100.653 98.4355ZM92.7094 101.093L95.3551 103.756L98.0068 101.093L95.3551 98.4355L92.7094 101.093ZM68.8679 87.7941L71.5136 90.4515L76.8171 85.1368L71.5136 79.8101L68.8679 82.4735L71.5136 85.1368L68.8679 87.7941ZM111.247 82.4735L113.899 79.8101L111.247 77.1528L108.602 79.8101L111.247 82.4735ZM76.8171 101.093L79.4628 98.4355L76.8171 95.7721L74.1654 98.4355L76.8171 101.093ZM82.1145 106.42L84.7602 109.077L87.412 106.42L84.7602 103.756L82.1145 106.42ZM113.899 127.702L116.545 125.039L113.899 122.375L111.247 125.039L113.899 127.702ZM76.8171 122.375L74.1654 119.718L71.5136 122.375L74.1654 125.039L76.8171 122.375ZM103.304 122.375L108.602 127.702L111.247 125.039L105.95 119.718L103.304 122.375ZM82.1145 143.658L84.7602 141.001L82.1145 138.344L79.4628 141.001L82.1145 143.658ZM71.5136 106.42L68.8679 109.077L71.5136 111.74L63.5705 119.718L55.6273 111.74L39.735 127.702L42.3807 130.36L55.6273 117.055L58.273 119.718L45.0264 133.023L47.6782 135.68L60.9248 122.375L63.5705 125.039L66.2222 122.375L68.8679 125.039L71.5136 122.375L68.8679 119.718L79.4628 109.077L76.8171 106.42L74.1654 109.077L71.5136 106.42ZM68.8679 125.039L66.2222 127.702L68.8679 130.36L55.6273 143.658L58.273 146.322L71.5136 133.023L76.8171 138.344L79.4628 135.68L76.8171 133.023L82.1145 127.702L79.4628 125.039L76.8171 127.702L74.1654 125.039L71.5136 127.702L68.8679 125.039ZM76.8171 106.42L79.4628 103.756L76.8171 101.093L74.1654 103.756L76.8171 106.42ZM82.1145 138.344L79.4628 135.68L84.7602 130.36L87.412 133.023L92.7094 127.702L98.0068 133.023L92.7094 138.344L90.0577 135.68L87.412 138.344L84.7602 135.68L82.1145 138.344Z" fill="white"/>
<path fill-rule="evenodd" clip-rule="evenodd" d="M22 192.149V227.889H48.6299V221.297H29.9492V212.941H47.0401V206.407H29.9492V198.742H48.6299V192.149H22Z" fill="white"/>
<path fill-rule="evenodd" clip-rule="evenodd" d="M68.8756 215.033H61.045V227.887H53.0957V192.147H67.3984C72.3875 192.147 74.8553 192.686 77.157 194.182C80.2833 196.223 81.9265 199.488 81.9265 203.616C81.9265 207.315 80.5562 210.313 77.9756 212.458C75.7333 214.279 73.0459 215.033 68.8756 215.033ZM67.345 198.74H61.045V208.869H67.784C69.973 208.869 71.4027 208.545 72.3281 207.744C73.4256 206.886 74.0841 205.437 74.0841 203.72C74.0841 202.01 73.3722 200.56 72.0552 199.708C71.0705 199.007 69.6467 198.74 67.345 198.74Z" fill="white"/>
<path fill-rule="evenodd" clip-rule="evenodd" d="M107.483 205.665V227.89H115.433V192.15H108.088L93.5781 214.484V192.15H85.5755V227.89H92.9789L107.483 205.665Z" fill="white"/>
<path fill-rule="evenodd" clip-rule="evenodd" d="M121.176 192.149V227.889H128.905V198.643H142.217V227.889H149.953V192.149H121.176Z" fill="white"/>
</svg>
