<svg width="128" height="36" viewBox="0 0 128 36" fill="none" xmlns="http://www.w3.org/2000/svg">
<path fill-rule="evenodd" clip-rule="evenodd" d="M0 0.148956V35.8892H26.6299V29.2966H7.94923V20.9414H25.0401V14.4068H7.94923V6.74153H26.6299V0.148956H0Z" fill="white"/>
<path fill-rule="evenodd" clip-rule="evenodd" d="M46.8756 23.0328H39.045V35.8874H31.0957V0.147217H45.3984C50.3875 0.147217 52.8553 0.686451 55.157 2.18239C58.2833 4.22336 59.9265 7.48776 59.9265 11.6161C59.9265 15.3154 58.5562 18.313 55.9756 20.4584C53.7333 22.279 51.0459 23.0328 46.8756 23.0328ZM45.345 6.73979H39.045V16.8693H45.784C47.973 16.8693 49.4027 16.5446 50.3281 15.7444C51.4256 14.8863 52.0841 13.4367 52.0841 11.7205C52.0841 10.01 51.3722 8.56043 50.0552 7.7081C49.0705 7.00651 47.6467 6.73979 45.345 6.73979Z" fill="white"/>
<path fill-rule="evenodd" clip-rule="evenodd" d="M85.4833 13.6652V35.8898H93.4326V0.149536H86.0884L71.5781 22.4843V0.149536H63.5755V35.8898H70.9789L85.4833 13.6652Z" fill="white"/>
<path fill-rule="evenodd" clip-rule="evenodd" d="M99.1756 0.148956V35.8892H106.905V6.64296H120.217V35.8892H127.953V0.148956H99.1756Z" fill="white"/>
</svg>
