<?xml version="1.0" encoding="utf-8" ?>
<svg xmlns="http://www.w3.org/2000/svg" xmlns:xlink="http://www.w3.org/1999/xlink" width="189" height="189">
	<defs>
		<clipPath id="clip_0">
			<rect x="-86" y="-162" width="360" height="640" clip-rule="evenodd"/>
		</clipPath>
	</defs>
	<g clip-path="url(#clip_0)">
		<path fill="rgb(255,255,255)" stroke="none" transform="translate(85 137)" d="M6 9L9 12L12 9L15 12L21 6L15 0L9 6L6 3L0 9L3 12L6 9Z"/>
	</g>
	<defs>
		<clipPath id="clip_1">
			<rect x="-86" y="-162" width="360" height="640" clip-rule="evenodd"/>
		</clipPath>
	</defs>
	<g clip-path="url(#clip_1)">
		<path fill="rgb(255,255,255)" stroke="none" transform="translate(80 109)" d="M2.5 5L5 2.5L2.5 0L0 2.5L2.5 5Z"/>
	</g>
	<defs>
		<clipPath id="clip_2">
			<rect x="-86" y="-162" width="360" height="640" clip-rule="evenodd"/>
		</clipPath>
	</defs>
	<g clip-path="url(#clip_2)">
		<path fill="rgb(255,255,255)" stroke="none" transform="translate(59 134)" d="M14.5 0L11.6 2.875L14.5 5.75L0 20.125L2.9 23L17.4 8.625L23.2 14.375L26.1 11.5L23.2 8.625L29 2.875L26.1 0L23.2 2.875L20.3 0L17.4 2.875L14.5 0Z"/>
	</g>
	<defs>
		<clipPath id="clip_3">
			<rect x="-86" y="-162" width="360" height="640" clip-rule="evenodd"/>
		</clipPath>
	</defs>
	<g clip-path="url(#clip_3)">
		<path fill="rgb(255,255,255)" stroke="none" transform="translate(43 115)" d="M34.4 0L31.5333 2.81818L34.4 5.63636L25.8 14.0909L17.2 5.63636L0 22.5455L2.86667 25.3636L17.2 11.2727L20.0667 14.0909L5.73333 28.1818L8.6 31L22.9333 16.9091L25.8 19.7273L28.6667 16.9091L31.5333 19.7273L34.4 16.9091L31.5333 14.0909L43 2.81818L40.1333 0L37.2667 2.81818L34.4 0Z"/>
	</g>
	<defs>
		<clipPath id="clip_4">
			<rect x="-86" y="-162" width="360" height="640" clip-rule="evenodd"/>
		</clipPath>
	</defs>
	<g clip-path="url(#clip_4)">
		<path fill="rgb(255,255,255)" stroke="none" transform="translate(87 149)" d="M2.5 5L5 2.5L2.5 0L0 2.5L2.5 5Z"/>
	</g>
	<defs>
		<clipPath id="clip_5">
			<rect x="-86" y="-162" width="360" height="640" clip-rule="evenodd"/>
		</clipPath>
	</defs>
	<g clip-path="url(#clip_5)">
		<path fill="rgb(255,255,255)" stroke="none" transform="translate(111 128)" d="M0 3L6 9L9 6L3 0L0 3Z"/>
	</g>
	<defs>
		<clipPath id="clip_6">
			<rect x="-86" y="-162" width="360" height="640" clip-rule="evenodd"/>
		</clipPath>
	</defs>
	<g clip-path="url(#clip_6)">
		<path fill="rgb(255,255,255)" stroke="none" transform="translate(78 129)" d="M5 2.5L2.5 0L0 2.5L2.5 5L5 2.5Z"/>
	</g>
	<defs>
		<clipPath id="clip_7">
			<rect x="-86" y="-162" width="360" height="640" clip-rule="evenodd"/>
		</clipPath>
	</defs>
	<g clip-path="url(#clip_7)">
		<path fill="rgb(255,255,255)" stroke="none" transform="translate(121 132)" d="M2.5 5L5 2.5L2.5 0L0 2.5L2.5 5Z"/>
	</g>
	<defs>
		<clipPath id="clip_8">
			<rect x="-86" y="-162" width="360" height="640" clip-rule="evenodd"/>
		</clipPath>
	</defs>
	<g clip-path="url(#clip_8)">
		<path fill="rgb(255,255,255)" stroke="none" transform="translate(89 112)" d="M0 2.5L2.5 5L5 2.5L2.5 0L0 2.5Z"/>
	</g>
	<defs>
		<clipPath id="clip_9">
			<rect x="-86" y="-162" width="360" height="640" clip-rule="evenodd"/>
		</clipPath>
	</defs>
	<g clip-path="url(#clip_9)">
		<path fill="rgb(255,255,255)" stroke="none" transform="translate(80 103)" d="M2.5 5L5 2.5L2.5 0L0 2.5L2.5 5Z"/>
	</g>
	<defs>
		<clipPath id="clip_10">
			<rect x="-86" y="-162" width="360" height="640" clip-rule="evenodd"/>
		</clipPath>
	</defs>
	<g clip-path="url(#clip_10)">
		<path fill="rgb(255,255,255)" stroke="none" transform="translate(118 83)" d="M2.5 5L5 2.5L2.5 0L0 2.5L2.5 5Z"/>
	</g>
	<defs>
		<clipPath id="clip_11">
			<rect x="-86" y="-162" width="360" height="640" clip-rule="evenodd"/>
		</clipPath>
	</defs>
	<g clip-path="url(#clip_11)">
		<path fill="rgb(255,255,255)" stroke="none" transform="translate(74 85)" d="M0 9L3 12L9 6L3 0L0 3L3 6L0 9Z"/>
	</g>
	<defs>
		<clipPath id="clip_12">
			<rect x="-86" y="-162" width="360" height="640" clip-rule="evenodd"/>
		</clipPath>
	</defs>
	<g clip-path="url(#clip_12)">
		<path fill="rgb(255,255,255)" stroke="none" transform="translate(101 106)" d="M0 2.5L2.5 5L5 2.5L2.5 0L0 2.5Z"/>
	</g>
	<defs>
		<clipPath id="clip_13">
			<rect x="-86" y="-162" width="360" height="640" clip-rule="evenodd"/>
		</clipPath>
	</defs>
	<g clip-path="url(#clip_13)">
		<path fill="rgb(255,255,255)" stroke="none" transform="translate(106 101)" d="M2.5 5L5 2.5L2.5 0L0 2.5L2.5 5Z"/>
	</g>
	<defs>
		<clipPath id="clip_14">
			<rect x="-86" y="-162" width="360" height="640" clip-rule="evenodd"/>
		</clipPath>
	</defs>
	<g clip-path="url(#clip_14)">
		<path fill="rgb(255,255,255)" stroke="none" transform="translate(149 66)" d="M14.4444 26L26 14.4444L11.5556 0L0 11.5556L14.4444 26Z"/>
	</g>
	<defs>
		<clipPath id="clip_15">
			<rect x="-86" y="-162" width="360" height="640" clip-rule="evenodd"/>
		</clipPath>
	</defs>
	<g clip-path="url(#clip_15)">
		<path fill="rgb(255,255,255)" stroke="none" transform="translate(120 137)" d="M11.2 14L14 11.2L2.8 0L0 2.8L11.2 14Z"/>
	</g>
	<defs>
		<clipPath id="clip_16">
			<rect x="-86" y="-162" width="360" height="640" clip-rule="evenodd"/>
		</clipPath>
	</defs>
	<g clip-path="url(#clip_16)">
		<path fill="rgb(255,255,255)" stroke="none" transform="translate(75 103)" d="M0 2.5L2.5 5L5 2.5L2.5 0L0 2.5Z"/>
	</g>
	<defs>
		<clipPath id="clip_17">
			<rect x="-86" y="-162" width="360" height="640" clip-rule="evenodd"/>
		</clipPath>
	</defs>
	<g clip-path="url(#clip_17)">
		<path fill="rgb(255,255,255)" stroke="none" transform="translate(38 54)" d="M2.8 0L0 2.8L11.2 14L14 11.2L2.8 0Z"/>
	</g>
	<defs>
		<clipPath id="clip_18">
			<rect x="-86" y="-162" width="360" height="640" clip-rule="evenodd"/>
		</clipPath>
	</defs>
	<g clip-path="url(#clip_18)">
		<path fill="rgb(255,255,255)" stroke="none" transform="translate(120 38)" d="M11.2 0L0 11.2L2.8 14L14 2.8L11.2 0Z"/>
	</g>
	<defs>
		<clipPath id="clip_19">
			<rect x="-86" y="-162" width="360" height="640" clip-rule="evenodd"/>
		</clipPath>
	</defs>
	<g clip-path="url(#clip_19)">
		<path fill="rgb(255,255,255)" stroke="none" transform="translate(14 66)" d="M26 11.5556L14.4444 0L0 14.4444L11.5556 26L26 11.5556Z"/>
	</g>
	<defs>
		<clipPath id="clip_20">
			<rect x="-86" y="-162" width="360" height="640" clip-rule="evenodd"/>
		</clipPath>
	</defs>
	<g clip-path="url(#clip_20)">
		<path fill="rgb(255,255,255)" stroke="none" transform="translate(66 14)" d="M26 11.5556L14.4444 0L0 14.4444L11.5556 26L26 11.5556Z"/>
	</g>
	<defs>
		<clipPath id="clip_21">
			<rect x="-86" y="-162" width="360" height="640" clip-rule="evenodd"/>
		</clipPath>
	</defs>
	<g clip-path="url(#clip_21)">
		<path fill="rgb(255,255,255)" stroke="none" transform="translate(83 0)" d="M0 11.4993L11.5 0L23 11.4993L11.5 23L0 11.4993ZM11.5 5.74925L5.75075 11.4993L11.5 17.25L17.25 11.4993L11.5 5.74925Z" fill-rule="evenodd"/>
	</g>
	<defs>
		<clipPath id="clip_22">
			<rect x="-86" y="-162" width="360" height="640" clip-rule="evenodd"/>
		</clipPath>
	</defs>
	<g clip-path="url(#clip_22)">
		<path fill="rgb(255,255,255)" stroke="none" transform="translate(0 83)" d="M23 11.4996L11.5 23L0 11.4996L11.5 0L23 11.4996ZM11.5 5.74944L5.75 11.4996L11.5 17.2498L17.25 11.4996L11.5 5.74944Z" fill-rule="evenodd"/>
	</g>
	<defs>
		<clipPath id="clip_23">
			<rect x="-86" y="-162" width="360" height="640" clip-rule="evenodd"/>
		</clipPath>
	</defs>
	<g clip-path="url(#clip_23)">
		<path fill="rgb(255,255,255)" stroke="none" transform="translate(132 80)" d="M14.5 0L29 14L14.5 28L0 14L14.5 0ZM5.8 14L14.5 22.4L23.2 14L14.5 5.6L5.8 14Z" fill-rule="evenodd"/>
	</g>
	<defs>
		<clipPath id="clip_24">
			<rect x="-86" y="-162" width="360" height="640" clip-rule="evenodd"/>
		</clipPath>
	</defs>
	<g clip-path="url(#clip_24)">
		<path fill="rgb(255,255,255)" stroke="none" transform="translate(14 97)" d="M11.5556 0L0 11.5556L14.4444 26L26 14.4444L11.5556 0Z"/>
	</g>
	<defs>
		<clipPath id="clip_25">
			<rect x="-86" y="-162" width="360" height="640" clip-rule="evenodd"/>
		</clipPath>
	</defs>
	<g clip-path="url(#clip_25)">
		<path fill="rgb(255,255,255)" stroke="none" transform="translate(80 29)" d="M14.5 0L29 14L14.5 28L0 14L14.5 0ZM5.8 14L14.5 22.4L23.2 14L14.5 5.6L5.8 14Z" fill-rule="evenodd"/>
	</g>
	<defs>
		<clipPath id="clip_26">
			<rect x="-86" y="-162" width="360" height="640" clip-rule="evenodd"/>
		</clipPath>
	</defs>
	<g clip-path="url(#clip_26)">
		<path fill="rgb(255,255,255)" stroke="none" transform="translate(97 14)" d="M14.4444 26L26 14.4444L11.5556 0L0 11.5556L14.4444 26Z"/>
	</g>
	<defs>
		<clipPath id="clip_27">
			<rect x="-86" y="-162" width="360" height="640" clip-rule="evenodd"/>
		</clipPath>
	</defs>
	<g clip-path="url(#clip_27)">
		<path fill="rgb(255,255,255)" stroke="none" transform="translate(83 166)" d="M23 11.5L11.5 23L0 11.5L11.5 0L23 11.5ZM17.25 11.5L11.5 5.75L5.75 11.5L11.5 17.25L17.25 11.5Z" fill-rule="evenodd"/>
	</g>
	<defs>
		<clipPath id="clip_28">
			<rect x="-86" y="-162" width="360" height="640" clip-rule="evenodd"/>
		</clipPath>
	</defs>
	<g clip-path="url(#clip_28)">
		<path fill="rgb(255,255,255)" stroke="none" transform="translate(92 149)" d="M16.9091 2.88889L14.0909 0L11.2727 2.88889L14.0909 5.77778L11.2727 8.66667L8.45455 5.77778L5.63636 8.66667L2.81818 5.77778L0 8.66667L16.9091 26L31 11.5556L19.7273 0L16.9091 2.88889Z"/>
	</g>
	<defs>
		<clipPath id="clip_29">
			<rect x="-86" y="-162" width="360" height="640" clip-rule="evenodd"/>
		</clipPath>
	</defs>
	<g clip-path="url(#clip_29)">
		<path fill="rgb(255,255,255)" stroke="none" transform="translate(103 132)" d="M12 9L3 0L0 3L9 12L12 9Z"/>
	</g>
	<defs>
		<clipPath id="clip_30">
			<rect x="-86" y="-162" width="360" height="640" clip-rule="evenodd"/>
		</clipPath>
	</defs>
	<g clip-path="url(#clip_30)">
		<path fill="rgb(255,255,255)" stroke="none" transform="translate(115 143)" d="M0 2.8L11.2 14L14 11.2L2.8 0L0 2.8Z"/>
	</g>
	<defs>
		<clipPath id="clip_31">
			<rect x="-86" y="-162" width="360" height="640" clip-rule="evenodd"/>
		</clipPath>
	</defs>
	<g clip-path="url(#clip_31)">
		<path fill="rgb(255,255,255)" stroke="none" transform="translate(126 132)" d="M14 11.2L2.8 0L0 2.8L11.2 14L14 11.2Z"/>
	</g>
	<defs>
		<clipPath id="clip_32">
			<rect x="-86" y="-162" width="360" height="640" clip-rule="evenodd"/>
		</clipPath>
	</defs>
	<g clip-path="url(#clip_32)">
		<path fill="rgb(255,255,255)" stroke="none" transform="translate(66 149)" d="M11.5556 0L0 11.5556L14.4444 26L26 14.4444L11.5556 0Z"/>
	</g>
	<defs>
		<clipPath id="clip_33">
			<rect x="-86" y="-162" width="360" height="640" clip-rule="evenodd"/>
		</clipPath>
	</defs>
	<g clip-path="url(#clip_33)">
		<path fill="rgb(255,255,255)" stroke="none" transform="translate(38 120)" d="M11.2 0L0 11.2L2.8 14L14 2.8L11.2 0Z"/>
	</g>
	<defs>
		<clipPath id="clip_34">
			<rect x="-86" y="-162" width="360" height="640" clip-rule="evenodd"/>
		</clipPath>
	</defs>
	<g clip-path="url(#clip_34)">
		<path fill="rgb(255,255,255)" stroke="none" transform="translate(28 80)" d="M14.5 28L0 14L14.5 0L29 14L14.5 28ZM23.2 14L14.5 5.6L5.8 14L14.5 22.4L23.2 14Z" fill-rule="evenodd"/>
	</g>
	<defs>
		<clipPath id="clip_35">
			<rect x="-86" y="-162" width="360" height="640" clip-rule="evenodd"/>
		</clipPath>
	</defs>
	<g clip-path="url(#clip_35)">
		<path fill="rgb(255,255,255)" stroke="none" transform="translate(55 137)" d="M11.2 0L0 11.2L2.8 14L14 2.8L11.2 0Z"/>
	</g>
	<defs>
		<clipPath id="clip_36">
			<rect x="-86" y="-162" width="360" height="640" clip-rule="evenodd"/>
		</clipPath>
	</defs>
	<g clip-path="url(#clip_36)">
		<path fill="rgb(255,255,255)" stroke="none" transform="translate(101 101)" d="M2.5 0L0 2.5L2.5 5L5 2.5L2.5 0Z"/>
	</g>
	<defs>
		<clipPath id="clip_37">
			<rect x="-86" y="-162" width="360" height="640" clip-rule="evenodd"/>
		</clipPath>
	</defs>
	<g clip-path="url(#clip_37)">
		<path fill="rgb(255,255,255)" stroke="none" transform="translate(106 66)" d="M3 0L0 3L3 6L0 9L3 12L9 6L3 0Z"/>
	</g>
	<defs>
		<clipPath id="clip_38">
			<rect x="-86" y="-162" width="360" height="640" clip-rule="evenodd"/>
		</clipPath>
	</defs>
	<g clip-path="url(#clip_38)">
		<path fill="rgb(255,255,255)" stroke="none" transform="translate(43 31)" d="M14.3057 34.6667L17.1668 37.5556L20.0279 34.6667L28.6113 43.3333L34.3336 37.5556L28.6113 31.7778L31.4724 28.8889L37.1947 34.6667L40.0558 31.7778L42.917 34.6667L45.7781 31.7778L48.6392 34.6667L45.7781 37.5556L48.6392 40.4444L51.5004 37.5556L54.3615 40.4444L57.2226 37.5556L54.3615 34.6667L57.2226 31.7778L60.0838 34.6667L62.9449 31.7778L60.0838 28.8889L68.6664 20.2222L71.5275 23.1111L68.6672 26L71.5275 28.8889L68.6672 31.7778L71.5275 34.6667L77.2498 28.8889L82.9721 34.6667L80.1109 37.5556L77.2498 34.6667L71.5275 40.4444L77.2498 46.2222L74.3887 49.1111L77.2498 52L80.1109 49.1111L82.9721 52L85.8332 49.1111L80.1109 43.3333L103 20.2222L100.139 17.3333L88.6943 28.8889L85.8332 26L97.2777 14.4444L94.4166 11.5556L82.9721 23.1111L80.1109 20.2222L77.2498 23.1111L71.5275 17.3333L85.8332 2.88889L82.9721 0L71.5275 11.5556L51.5004 31.7778L20.0279 0L17.1668 2.88889L40.0558 26L37.1947 28.8889L14.3057 5.77778L11.4445 8.66667L25.7502 23.1111L22.8891 26L8.5834 11.5556L5.72226 14.4444L17.1668 26L14.3057 28.8889L2.86113 17.3333L0 20.2222L11.4445 31.7778L8.5834 34.6667L11.4445 37.5556L14.3057 34.6667Z"/>
	</g>
	<defs>
		<clipPath id="clip_39">
			<rect x="-86" y="-162" width="360" height="640" clip-rule="evenodd"/>
		</clipPath>
	</defs>
	<g clip-path="url(#clip_39)">
		<path fill="rgb(255,255,255)" stroke="none" transform="translate(113 78)" d="M0 2.5L2.5 5L5 2.5L2.5 0L0 2.5Z"/>
	</g>
	<defs>
		<clipPath id="clip_40">
			<rect x="-86" y="-162" width="360" height="640" clip-rule="evenodd"/>
		</clipPath>
	</defs>
	<g clip-path="url(#clip_40)">
		<path fill="rgb(255,255,255)" stroke="none" transform="translate(101 66)" d="M2.5 0L0 2.5L2.5 5L5 2.5L2.5 0Z"/>
	</g>
	<defs>
		<clipPath id="clip_41">
			<rect x="-86" y="-162" width="360" height="640" clip-rule="evenodd"/>
		</clipPath>
	</defs>
	<g clip-path="url(#clip_41)">
		<path fill="rgb(255,255,255)" stroke="none" transform="translate(83 66)" d="M2.5 0L0 2.5L2.5 5L5 2.5L2.5 0Z"/>
	</g>
	<defs>
		<clipPath id="clip_42">
			<rect x="-86" y="-162" width="360" height="640" clip-rule="evenodd"/>
		</clipPath>
	</defs>
	<g clip-path="url(#clip_42)">
		<path fill="rgb(255,255,255)" stroke="none" transform="translate(95 103)" d="M25.3636 2.8L22.5455 0L16.9091 5.6L14.0909 2.8L11.2727 5.6L14.0909 8.4L11.2727 11.2L8.45455 8.4L5.63636 11.2L2.81818 8.4L0 11.2L5.63636 16.8L8.45455 14L11.2727 16.8L14.0909 14L16.9091 16.8L14.0909 19.6L11.2727 16.8L8.45455 19.6L14.0909 25.2L16.9091 22.4L19.7273 25.2L22.5455 22.4L28.1818 28L31 25.2L25.3636 19.6L28.1818 16.8L25.3636 14L22.5455 16.8L16.9091 11.2L19.7273 8.4L25.3636 14L28.1818 11.2L22.5455 5.6L25.3636 2.8Z"/>
	</g>
	<defs>
		<clipPath id="clip_43">
			<rect x="-86" y="-162" width="360" height="640" clip-rule="evenodd"/>
		</clipPath>
	</defs>
	<g clip-path="url(#clip_43)">
		<path fill="rgb(255,255,255)" stroke="none" transform="translate(123 109)" d="M8.7 8.45455L11.6 5.63636L5.8 0L0 5.63636L5.8 11.2727L2.9 14.0909L8.7 19.7273L20.3 31L23.2 28.1818L11.6 16.9091L14.5 14.0909L26.1 25.3636L29 22.5455L14.5 8.45455L11.6 11.2727L8.7 8.45455Z"/>
	</g>
	<defs>
		<clipPath id="clip_44">
			<rect x="-86" y="-162" width="360" height="640" clip-rule="evenodd"/>
		</clipPath>
	</defs>
	<g clip-path="url(#clip_44)">
		<path fill="rgb(255,255,255)" stroke="none" transform="translate(75 97)" d="M2.5 0L0 2.5L2.5 5L5 2.5L2.5 0Z"/>
	</g>
	<defs>
		<clipPath id="clip_45">
			<rect x="-86" y="-162" width="360" height="640" clip-rule="evenodd"/>
		</clipPath>
	</defs>
	<g clip-path="url(#clip_45)">
		<path fill="rgb(255,255,255)" stroke="none" transform="translate(80 94)" d="M0 6L3 9L9 3L6 0L0 6Z"/>
	</g>
	<defs>
		<clipPath id="clip_46">
			<rect x="-86" y="-162" width="360" height="640" clip-rule="evenodd"/>
		</clipPath>
	</defs>
	<g clip-path="url(#clip_46)">
		<path fill="rgb(255,255,255)" stroke="none" transform="translate(78 71)" d="M20 28.5714L25.7143 22.8571L31.4286 28.5714L34.2857 25.7143L37.1429 28.5714L40 25.7143L34.2857 20L31.4286 22.8571L28.5714 20L31.4286 17.1429L34.2857 20L37.1429 17.1429L31.4286 11.4286L34.2857 8.57143L31.4286 5.71429L28.5714 8.57143L25.7143 5.71429L28.5714 2.85714L25.7143 0L22.8571 2.85714L20 0L17.1429 2.85714L20 5.71429L17.1429 8.57143L14.2857 5.71429L11.4286 8.57143L8.57143 5.71429L11.4286 2.85714L8.57143 0L5.71429 2.85714L2.85714 0L0 2.85714L2.85714 5.71429L0 8.57143L2.85714 11.4286L5.71429 8.57143L11.4286 14.2857L8.57143 17.1429L11.4286 20L17.1429 14.2857L22.8571 20L20 22.8571L17.1429 20L11.4286 25.7143L17.1429 31.4286L11.4286 37.1429L14.2857 40L22.8571 31.4286L20 28.5714Z"/>
	</g>
	<defs>
		<clipPath id="clip_47">
			<rect x="-86" y="-162" width="360" height="640" clip-rule="evenodd"/>
		</clipPath>
	</defs>
	<g clip-path="url(#clip_47)">
		<path fill="rgb(255,255,255)" stroke="none" transform="translate(32 60)" d="M39.375 20.125L36.5625 23L42.1875 28.75L33.75 37.375L36.5625 40.25L33.75 43.125L42.1875 51.75L39.375 54.625L33.75 48.875L30.9375 51.75L36.5625 57.5L33.75 60.375L28.125 54.625L25.3125 57.5L22.5 54.625L28.125 48.875L25.3125 46L2.8125 69L0 66.125L30.9375 34.5L0 2.875L2.8125 0L14.0625 11.5L16.875 8.625L19.6875 11.5L22.5 8.625L25.3125 11.5L28.125 8.625L30.9375 11.5L28.125 14.375L30.9375 17.25L28.125 20.125L25.3125 17.25L22.5 20.125L25.3125 23L28.125 20.125L30.9375 23L33.75 20.125L30.9375 17.25L33.75 14.375L36.5625 17.25L39.375 14.375L45 20.125L42.1875 23L39.375 20.125ZM30.9375 28.75L33.75 31.625L36.5625 28.75L33.75 25.875L30.9375 28.75Z" fill-rule="evenodd"/>
	</g>
	<defs>
		<clipPath id="clip_48">
			<rect x="-86" y="-162" width="360" height="640" clip-rule="evenodd"/>
		</clipPath>
	</defs>
	<g clip-path="url(#clip_48)">
		<path fill="rgb(255,255,255)" stroke="none" transform="translate(69 97)" d="M0 2.5L2.5 5L5 2.5L2.5 0L0 2.5Z"/>
	</g>
	<defs>
		<clipPath id="clip_49">
			<rect x="-86" y="-162" width="360" height="640" clip-rule="evenodd"/>
		</clipPath>
	</defs>
	<g clip-path="url(#clip_49)">
		<path fill="rgb(255,255,255)" stroke="none" transform="translate(166 83)" d="M23 11.4996L11.5 23L0 11.4996L11.5 0L23 11.4996ZM11.5 5.74944L5.75 11.4996L11.5 17.2498L17.25 11.4996L11.5 5.74944Z" fill-rule="evenodd"/>
	</g>
	<defs>
		<clipPath id="clip_50">
			<rect x="-86" y="-162" width="360" height="640" clip-rule="evenodd"/>
		</clipPath>
	</defs>
	<g clip-path="url(#clip_50)">
		<path fill="rgb(255,255,255)" stroke="none" transform="translate(78 66)" d="M2.5 0L0 2.5L2.5 5L5 2.5L2.5 0Z"/>
	</g>
	<defs>
		<clipPath id="clip_51">
			<rect x="-86" y="-162" width="360" height="640" clip-rule="evenodd"/>
		</clipPath>
	</defs>
	<g clip-path="url(#clip_51)">
		<path fill="rgb(255,255,255)" stroke="none" transform="translate(121 54)" d="M37 8.65385L34.1538 5.76923L22.7692 17.3077L19.9231 14.4231L31.3077 2.88462L28.4615 0L14.2308 14.4231L17.0769 17.3077L14.2308 20.1923L17.0769 23.0769L0 40.3846L2.84615 43.2692L0 46.1538L5.69231 51.9231L8.53846 49.0385L17.0769 57.6923L14.2308 60.5769L17.0769 63.4615L19.9231 60.5769L34.1538 75L37 72.1154L5.69231 40.3846L37 8.65385Z"/>
	</g>
	<defs>
		<clipPath id="clip_52">
			<rect x="-86" y="-162" width="360" height="640" clip-rule="evenodd"/>
		</clipPath>
	</defs>
	<g clip-path="url(#clip_52)">
		<path fill="rgb(255,255,255)" stroke="none" transform="translate(149 97)" d="M0 14.4444L11.5556 26L26 11.5556L14.4444 0L0 14.4444Z"/>
	</g>
	<defs>
		<clipPath id="clip_53">
			<rect x="-86" y="-162" width="360" height="640" clip-rule="evenodd"/>
		</clipPath>
	</defs>
	<g clip-path="url(#clip_53)">
		<path fill="rgb(255,255,255)" stroke="none" transform="translate(129 72)" d="M0 2.5L2.5 5L5 2.5L2.5 0L0 2.5Z"/>
	</g>
	<defs>
		<clipPath id="clip_54">
			<rect x="-86" y="-162" width="360" height="640" clip-rule="evenodd"/>
		</clipPath>
	</defs>
	<g clip-path="url(#clip_54)">
		<path fill="rgb(255,255,255)" stroke="none" transform="translate(85 120)" d="M8.5 17L0 8.5L8.5 0L17 8.5L8.5 17ZM11.3333 8.5L8.5 5.66667L5.66667 8.5L8.5 11.3333L11.3333 8.5Z" fill-rule="evenodd"/>
	</g>
</svg>
