<svg width="178" height="20" viewBox="0 0 178 20" fill="none" xmlns="http://www.w3.org/2000/svg">
<mask id="mask0" mask-type="alpha" maskUnits="userSpaceOnUse" x="0" y="3" width="11" height="15">
<path fill-rule="evenodd" clip-rule="evenodd" d="M0 3.698H10.6467V17.0268H0V3.698Z" fill="white"/>
</mask>
<g mask="url(#mask0)">
<path fill-rule="evenodd" clip-rule="evenodd" d="M2.74683 14.7292H5.53159C6.36538 14.7292 6.8947 14.6081 7.21791 14.3685C7.63481 14.0695 7.86199 13.5309 7.86199 12.9084C7.86199 12.1524 7.53878 11.5718 6.99073 11.3124C6.68859 11.1518 6.1382 11.0727 5.3981 11.0727H2.74683V14.7292ZM2.74683 9.09129H5.26694C6.66752 9.09129 7.33267 8.59223 7.33267 7.53482C7.33267 6.45517 6.72607 5.99565 5.26694 5.99565H2.74683V9.09129ZM5.68383 3.698C6.97199 3.698 7.74723 3.83635 8.39365 4.17729C9.41481 4.73565 10.0401 5.83506 10.0401 7.05553C10.0401 8.27353 9.4148 9.25188 8.33509 9.79294C8.97917 10.0326 9.09394 10.0919 9.41481 10.3315C10.2299 10.9516 10.6468 11.8707 10.6468 13.0887C10.6468 14.5266 10.0214 15.7075 8.90423 16.4067C8.1852 16.8267 7.37015 17.0268 6.19441 17.0268H-0.000457764V3.698H5.68383Z" fill="white"/>
</g>
<path fill-rule="evenodd" clip-rule="evenodd" d="M16.4381 3.69702H19.1104V14.6887H23.6752V3.69702H26.3452V14.6887H27.5022V19.9041H24.8298V17.0258H16.4381V3.69702Z" fill="white"/>
<path fill-rule="evenodd" clip-rule="evenodd" d="M38.2581 6.15452H31.5339V9.01299H37.71V11.3106H31.5339V14.5693H38.3916V17.0251H28.7866V3.69629H38.2581V6.15452Z" fill="white"/>
<path fill-rule="evenodd" clip-rule="evenodd" d="M50.6433 17.0261H47.896V11.2301H42.7247V17.0261H39.9774V3.69727H42.7247V8.77432H47.896V3.69727H50.6433V17.0261Z" fill="white"/>
<path fill-rule="evenodd" clip-rule="evenodd" d="M62.196 6.15452H58.3503V17.0251H55.603V6.15452H51.7947V3.69629H62.196V6.15452Z" fill="white"/>
<path fill-rule="evenodd" clip-rule="evenodd" d="M66.057 9.93154H68.5185C69.2774 9.93154 69.7692 9.81295 70.0924 9.51154C70.4695 9.19283 70.6967 8.65177 70.6967 8.01436C70.6967 7.37448 70.4508 6.83589 69.9964 6.51471C69.6568 6.2553 69.1626 6.15401 68.3686 6.15401H66.057V9.93154ZM68.3874 3.69824C70.1112 3.69824 70.9637 3.89836 71.76 4.45671C72.8397 5.21518 73.4065 6.43318 73.4065 7.97483C73.4065 9.35342 72.9334 10.4726 72.0434 11.2706C71.2658 11.95 70.3384 12.2317 68.898 12.2317H66.057V17.0271H63.3097V3.69824H68.3874Z" fill="white"/>
<path fill-rule="evenodd" clip-rule="evenodd" d="M84.2404 6.15452H77.5138V9.01299H83.69V11.3106H77.5138V14.5693H84.3739V17.0251H74.7689V3.69629H84.2404V6.15452Z" fill="white"/>
<path fill-rule="evenodd" clip-rule="evenodd" d="M101.512 11.8904C101.266 15.2281 99.0694 17.3454 95.8279 17.3454C92.1719 17.3454 89.7478 14.5685 89.7478 10.3512C89.7478 6.23518 92.2867 3.37671 95.9427 3.37671C98.8961 3.37671 101.208 5.39518 101.416 8.17459H98.6876C98.4043 6.67494 97.3831 5.81518 95.8865 5.81518C93.8395 5.81518 92.5326 7.594 92.5326 10.3907C92.5326 13.1701 93.8208 14.9267 95.8654 14.9267C97.5143 14.9267 98.519 13.8891 98.7462 11.8904H101.512Z" fill="white"/>
<path fill-rule="evenodd" clip-rule="evenodd" d="M105.088 10.3512C105.088 13.1701 106.414 14.9292 108.573 14.9292C110.658 14.9292 111.965 13.1504 111.965 10.3117C111.965 7.57424 110.639 5.79541 108.592 5.79541C106.433 5.79541 105.088 7.53471 105.088 10.3512ZM114.749 10.3709C114.749 14.5265 112.248 17.3479 108.554 17.3479C104.802 17.3479 102.303 14.5487 102.303 10.3709C102.303 6.13389 104.786 3.37671 108.629 3.37671C112.248 3.37671 114.749 6.23518 114.749 10.3709Z" fill="white"/>
<path fill-rule="evenodd" clip-rule="evenodd" d="M122.551 14.6894C123.404 14.6894 123.914 14.0693 123.914 13.0094C123.914 11.9915 123.366 11.3121 122.551 11.3121H118.837V14.6894H122.551ZM116.167 3.69775H125.43V6.03493H118.837V8.97246H122.209C123.479 8.97246 124.294 9.15281 124.994 9.61234C125.98 10.2522 126.587 11.5098 126.587 12.8686C126.587 15.2873 124.804 17.0266 122.324 17.0266H116.167V3.69775Z" fill="white"/>
<mask id="mask1" mask-type="alpha" maskUnits="userSpaceOnUse" x="0" y="0" width="178" height="20">
<path fill-rule="evenodd" clip-rule="evenodd" d="M0 19.9043H177.225V0.0012207H0V19.9043Z" fill="white"/>
</mask>
<g mask="url(#mask1)">
<path fill-rule="evenodd" clip-rule="evenodd" d="M138.744 17.0261H141.416V3.69727H138.744V17.0261ZM133.477 14.6889C134.406 14.6889 134.992 13.97 134.992 12.8681C134.992 11.7514 134.406 11.072 133.477 11.072H130.711V14.6889H133.477ZM128.041 3.69727H130.711V8.7348H133.477C135.901 8.7348 137.664 10.4716 137.664 12.8681C137.664 15.2695 135.901 17.0261 133.477 17.0261H128.041V3.69727Z" fill="white"/>
<path fill-rule="evenodd" clip-rule="evenodd" d="M152.87 6.15452H149.025V17.0251H146.28V6.15452H142.471V3.69629H152.87V6.15452Z" fill="white"/>
<path fill-rule="evenodd" clip-rule="evenodd" d="M153.909 3.69702H156.675V12.3095L162.092 3.69702H164.631V17.0258H161.884V8.4529L156.466 17.0258H153.909V3.69702Z" fill="white"/>
<path fill-rule="evenodd" clip-rule="evenodd" d="M170.083 -0.000244141C170.291 0.760697 170.86 1.11893 171.844 1.11893C172.849 1.11893 173.437 0.760697 173.645 -0.000244141H174.933C174.856 1.71929 173.776 2.63834 171.863 2.63834C169.949 2.63834 168.87 1.71929 168.795 -0.000244141H170.083ZM166.502 3.69823H169.268V12.3107L174.685 3.69823H177.224V17.0271H174.479V8.45411L169.059 17.0271H166.502V3.69823Z" fill="white"/>
</g>
</svg>
