<svg width="1020" height="640" viewBox="0 0 1020 640" fill="none" xmlns="http://www.w3.org/2000/svg">
<path fill-rule="evenodd" clip-rule="evenodd" d="M999.5 574L1019 593.5L999.5 613L980 593.5L999.5 574Z" fill="white"/>
<path fill-rule="evenodd" clip-rule="evenodd" d="M854.5 581L874 600.5L854.5 620L835 600.5L854.5 581Z" fill="white"/>
<path fill-rule="evenodd" clip-rule="evenodd" d="M509.5 301L529 320.5L509.5 340L490 320.5L509.5 301Z" fill="white"/>
<path fill-rule="evenodd" clip-rule="evenodd" d="M931.5 104L951 123.5L931.5 143L912 123.5L931.5 104Z" fill="white"/>
<path fill-rule="evenodd" clip-rule="evenodd" d="M56.5 307L76 326.5L56.5 346L37 326.5L56.5 307Z" fill="white"/>
<path fill-rule="evenodd" clip-rule="evenodd" d="M71.5 447L91 466.5L71.5 486L52 466.5L71.5 447Z" fill="white"/>
<path fill-rule="evenodd" clip-rule="evenodd" d="M999.5 334L1019 353.5L999.5 373L980 353.5L999.5 334Z" fill="white"/>
<path fill-rule="evenodd" clip-rule="evenodd" d="M890 311L898 319L890 327L882 319L890 311Z" fill="white"/>
<path fill-rule="evenodd" clip-rule="evenodd" d="M951 542L959 550L951 558L943 550L951 542Z" fill="white"/>
<path fill-rule="evenodd" clip-rule="evenodd" d="M35 55L43 63L35 71L27 63L35 55Z" fill="white"/>
<path fill-rule="evenodd" clip-rule="evenodd" d="M557 550L565 558L557 566L549 558L557 550Z" fill="white"/>
<path fill-rule="evenodd" clip-rule="evenodd" d="M639 542L647 550L639 558L631 550L639 542Z" fill="white"/>
<path fill-rule="evenodd" clip-rule="evenodd" d="M207 469L215 477L207 485L199 477L207 469Z" fill="white"/>
<path fill-rule="evenodd" clip-rule="evenodd" d="M56 34L64 42L56 50L48 42L56 34Z" fill="white"/>
<path fill-rule="evenodd" clip-rule="evenodd" d="M337 357L345 365L337 373L329 365L337 357Z" fill="white"/>
<path fill-rule="evenodd" clip-rule="evenodd" d="M333 512L341 520L333 528L325 520L333 512Z" fill="white"/>
<path fill-rule="evenodd" clip-rule="evenodd" d="M287 586L295 594L287 602L279 594L287 586Z" fill="white"/>
<path fill-rule="evenodd" clip-rule="evenodd" d="M471 374L479 382L471 390L463 382L471 374Z" fill="white"/>
<path fill-rule="evenodd" clip-rule="evenodd" d="M795 404L803 412L795 420L787 412L795 404Z" fill="white"/>
<path fill-rule="evenodd" clip-rule="evenodd" d="M796 306L804 314L796 322L788 314L796 306Z" fill="white"/>
<path fill-rule="evenodd" clip-rule="evenodd" d="M291 225L299 233L291 241L283 233L291 225Z" fill="white"/>
<path fill-rule="evenodd" clip-rule="evenodd" d="M518 115L526 123L518 131L510 123L518 115Z" fill="white"/>
<path fill-rule="evenodd" clip-rule="evenodd" d="M719 12L727 20L719 28L711 20L719 12Z" fill="white"/>
<path fill-rule="evenodd" clip-rule="evenodd" d="M711 558L719 566L711 574L703 566L711 558Z" fill="white"/>
<path fill-rule="evenodd" clip-rule="evenodd" d="M614 481L610 477L614 473L618 477L614 481Z" fill="white"/>
<path fill-rule="evenodd" clip-rule="evenodd" d="M536 451L532 447L536 443L540 447L536 451Z" fill="white"/>
<path fill-rule="evenodd" clip-rule="evenodd" d="M770 391L766 387L770 383L774 387L770 391Z" fill="white"/>
<path fill-rule="evenodd" clip-rule="evenodd" d="M385 237L381 233L385 229L389 233L385 237Z" fill="white"/>
<path fill-rule="evenodd" clip-rule="evenodd" d="M385 451L381 447L385 443L389 447L385 451Z" fill="white"/>
<path fill-rule="evenodd" clip-rule="evenodd" d="M287 386L283 382L287 378L291 382L287 386Z" fill="white"/>
<path fill-rule="evenodd" clip-rule="evenodd" d="M0 412L4 416L8 412L4 408L0 412Z" fill="white"/>
<path fill-rule="evenodd" clip-rule="evenodd" d="M89 188L85 184L89 180L93 184L89 188Z" fill="white"/>
<path fill-rule="evenodd" clip-rule="evenodd" d="M68 242L64 238L68 234L72 238L68 242Z" fill="white"/>
<path fill-rule="evenodd" clip-rule="evenodd" d="M364 55L360 51L364 47L368 51L364 55Z" fill="white"/>
<path fill-rule="evenodd" clip-rule="evenodd" d="M138 259L134 255L138 251L142 255L138 259Z" fill="white"/>
<path fill-rule="evenodd" clip-rule="evenodd" d="M217 50L213 46L217 42L221 46L217 50Z" fill="white"/>
<path fill-rule="evenodd" clip-rule="evenodd" d="M138 100L134 96L138 92L142 96L138 100Z" fill="white"/>
<path fill-rule="evenodd" clip-rule="evenodd" d="M172 546L168 542L172 538L176 542L172 546Z" fill="white"/>
<path fill-rule="evenodd" clip-rule="evenodd" d="M832 242L828 238L832 234L836 238L832 242Z" fill="white"/>
<path fill-rule="evenodd" clip-rule="evenodd" d="M916 221L912 217L916 213L920 217L916 221Z" fill="white"/>
<path fill-rule="evenodd" clip-rule="evenodd" d="M848 37L844 33L848 29L852 33L848 37Z" fill="white"/>
<path fill-rule="evenodd" clip-rule="evenodd" d="M833 524L829 520L833 516L837 520L833 524Z" fill="white"/>
<path fill-rule="evenodd" clip-rule="evenodd" d="M601 182L597 178L601 174L605 178L601 182Z" fill="white"/>
<path fill-rule="evenodd" clip-rule="evenodd" d="M565 330L561 326L565 322L569 326L565 330Z" fill="white"/>
<path fill-rule="evenodd" clip-rule="evenodd" d="M499 249L495 245L499 241L503 245L499 249Z" fill="white"/>
<path fill-rule="evenodd" clip-rule="evenodd" d="M614 24L610 20L614 16L618 20L614 24Z" fill="white"/>
<path fill-rule="evenodd" clip-rule="evenodd" d="M316 416L312 412L316 408L320 412L316 416Z" fill="white"/>
<path fill-rule="evenodd" clip-rule="evenodd" d="M385 623L381 619L385 615L389 619L385 623Z" fill="white"/>
<path fill-rule="evenodd" clip-rule="evenodd" d="M8 636L12 640L16 636L12 632L8 636Z" fill="white"/>
<path fill-rule="evenodd" clip-rule="evenodd" d="M654 636L658 640L662 636L658 632L654 636Z" fill="white"/>
<path fill-rule="evenodd" clip-rule="evenodd" d="M675 72L671 68L675 64L679 68L675 72Z" fill="white"/>
<path fill-rule="evenodd" clip-rule="evenodd" d="M977 82L973 78L977 74L981 78L977 82Z" fill="white"/>
<path fill-rule="evenodd" clip-rule="evenodd" d="M1012 24L1008 20L1012 16L1016 20L1012 24Z" fill="white"/>
<path fill-rule="evenodd" clip-rule="evenodd" d="M12 24L8 20L12 16L16 20L12 24Z" fill="white"/>
<path fill-rule="evenodd" clip-rule="evenodd" d="M999 506L995 502L999 498L1003 502L999 506Z" fill="white"/>
<path fill-rule="evenodd" clip-rule="evenodd" d="M977 483L973 479L977 475L981 479L977 483Z" fill="white"/>
<path fill-rule="evenodd" clip-rule="evenodd" d="M905 432L901 428L905 424L909 428L905 432Z" fill="white"/>
<path fill-rule="evenodd" clip-rule="evenodd" d="M71 569L79 577L71 585L63 577L71 569Z" fill="white"/>
<path fill-rule="evenodd" clip-rule="evenodd" d="M129 603L137 611L129 619L121 611L129 603Z" fill="white"/>
<path fill-rule="evenodd" clip-rule="evenodd" d="M217 306L225 314L217 322L209 314L217 306Z" fill="white"/>
<path fill-rule="evenodd" clip-rule="evenodd" d="M796 134L804 142L796 150L788 142L796 134Z" fill="white"/>
<path fill-rule="evenodd" clip-rule="evenodd" d="M715 158L723 166L715 174L707 166L715 158Z" fill="white"/>
<path fill-rule="evenodd" clip-rule="evenodd" d="M905 88L913 96L905 104L897 96L905 88Z" fill="white"/>
<path fill-rule="evenodd" clip-rule="evenodd" d="M623 370L631 378L623 386L615 378L623 370Z" fill="white"/>
<path fill-rule="evenodd" clip-rule="evenodd" d="M381 134L389 142L381 150L373 142L381 134Z" fill="white"/>
<path fill-rule="evenodd" clip-rule="evenodd" d="M432 0L424 8L432 16L440 8L432 0Z" fill="white"/>
<path fill-rule="evenodd" clip-rule="evenodd" d="M1004 197L1012 205L1020 197L1012 189L1004 197Z" fill="white"/>
<path fill-rule="evenodd" clip-rule="evenodd" d="M675.5 244L695 263.5L675.5 283L656 263.5L675.5 244Z" fill="white"/>
<path fill-rule="evenodd" clip-rule="evenodd" d="M459.5 522L479 541.5L459.5 561L440 541.5L459.5 522Z" fill="white"/>
<path fill-rule="evenodd" clip-rule="evenodd" d="M217.5 146L237 165.5L217.5 185L198 165.5L217.5 146Z" fill="white"/>
<path fill-rule="evenodd" clip-rule="evenodd" d="M154.5 405L174 424.5L154.5 444L135 424.5L154.5 405Z" fill="white"/>
<path fill-rule="evenodd" clip-rule="evenodd" d="M431.5 158L451 177.5L431.5 197L412 177.5L431.5 158Z" fill="white"/>
<path fill-rule="evenodd" clip-rule="evenodd" d="M734.5 402L754 421.5L734.5 441L715 421.5L734.5 402Z" fill="white"/>
</svg>
